# xmcd
#
# Track frame offsets:
#	150
#	20367
#	32996
#	51094
#	64503
#	75044
#	88267
#	111581
#	122393
#	140473
#	154953
#	167039
#	195120
#	206022
#	235776
#
# Disc length: 3369 seconds
#
# Revision: 0
# Processed by: cddbd v1.5.2PL0 Copyright (c) Steve Scherf et al.
# Submitted via: EZCDAudioConverter 2.1.7.1
#
DISCID=bc0d270f
DTITLE=V/A - Peru Bravo
DYEAR=1900
DGENRE=
TTITLE0=Laghonia - Bahia 
TTITLE1=Traffic Sound  - La Camita
TTITLE2=Jean Paul "El Troglodita" - Everything's Gonna Change
TTITLE3=Cacique  - Cacique 
TTITLE4=Los Holy's - Cissy Strut
TTITLE5=Thee Image - Outasite 
TTITLE6=Black Sugar  - Checan 
TTITLE7=Los Belking's - Sabata
TTITLE8=Telegraph Avenue  - Sungaligali 
TTITLE9=Los Texao  - Sookie Sookie
TTITLE10=Jeriko  - Hey Joe
TTITLE11=Los Destellos  - Onsta La Yerbita
TTITLE12=Los Nuevos Shains - Pancito Caliente
TTITLE13=The Mad's  - Aouh Aouh
TTITLE14=Los Comandos  - El Sermón
EXTD=
EXTT0=
EXTT1=
EXTT2=
EXTT3=
EXTT4=
EXTT5=
EXTT6=
EXTT7=
EXTT8=
EXTT9=
EXTT10=
EXTT11=
EXTT12=
EXTT13=
EXTT14=
PLAYORDER=
